<svg xmlns="http://www.w3.org/2000/svg" version="1.0" preserveAspectRatio="xMidYMid meet" viewBox="71 220.4 477 175.6">

<g transform="translate(0.000000,621.000000) scale(0.100000,-0.100000)" fill="#fff" stroke="none">
<path d="M3350 3999 c-156 -19 -307 -70 -500 -170 -53 -27 -105 -56 -115 -65 -25 -19 -18 -17 120 41 301 128 413 156 624 156 137 0 347 -23 363 -39 4 -4 -10 -61 -31 -127 l-38 -120 -79 2 c-44 1 -196 9 -339 18 -600 35 -1138 45 -1380 25 -276 -24 -510 -112 -693 -261 -59 -48 -63 -67 -5 -22 166 129 390 208 666 234 197 20 811 2 1455 -41 162 -11 342 -20 401 -20 102 0 265 10 259 16 -2 1 -57 10 -123 19 -66 10 -121 19 -123 20 -6 5 88 229 99 236 23 14 325 -82 576 -182 165 -66 175 -69 255 -69 52 0 77 4 68 9 -68 40 -653 244 -816 285 -204 51 -484 75 -644 55z"/>
<path d="M4700 3626 c0 -2 28 -13 63 -25 105 -34 222 -87 222 -101 0 -7 -31 -23 -68 -35 -73 -25 -82 -31 -138 -83 -20 -19 -39 -30 -42 -25 -11 19 -37 119 -37 145 0 15 6 28 13 29 6 0 39 1 72 1 l60 0 -87 15 c-135 24 -140 13 -78 -186 l32 -104 28 44 c49 77 140 149 190 149 20 0 31 -49 16 -73 -8 -12 -28 -60 -44 -107 -17 -47 -33 -93 -37 -102 -4 -9 -21 -19 -38 -21 -18 -2 11 -5 64 -5 l96 -2 7 61 c13 127 5 147 -34 83 -36 -57 -34 -32 2 37 26 52 33 77 34 132 2 78 13 67 -135 134 -78 36 -161 56 -161 39z"/>
<path d="M1227 3374 c-76 -59 -78 -101 -6 -119 26 -6 27 -4 48 75 13 45 21 84 19 86 -2 2 -30 -17 -61 -42z"/>
<path d="M2288 3290 c-44 -6 -69 -16 -107 -45 -46 -35 -97 -92 -89 -100 9 -8 118 29 151 53 20 15 47 32 60 39 19 10 566 41 797 45 l75 1 -55 7 c-70 10 -756 10 -832 0z"/>
<path d="M710 2835 c0 -96 3 -115 15 -115 10 0 15 11 15 35 l0 35 75 0 c62 0 81 4 105 22 42 31 42 85 0 116 -25 19 -42 22 -120 22 l-90 0 0 -115z m193 71 c9 -7 17 -23 17 -36 0 -36 -28 -49 -107 -50 l-73 0 0 50 0 50 73 0 c44 -1 79 -6 90 -14z"/>
<path d="M1070 2835 c0 -70 4 -115 10 -115 6 0 10 18 10 40 l0 40 65 0 c63 0 66 -1 101 -40 20 -22 43 -40 50 -40 21 0 17 11 -18 48 l-33 33 28 21 c39 28 38 79 -2 107 -24 18 -44 21 -120 21 l-91 0 0 -115z m193 71 c9 -7 17 -21 17 -31 0 -32 -31 -44 -112 -45 l-78 0 0 45 0 45 78 0 c48 -1 84 -6 95 -14z"/>
<path d="M1440 2835 l0 -115 120 0 c100 0 120 3 120 15 0 12 -18 15 -105 15 l-105 0 0 35 0 35 80 0 c64 0 80 3 80 15 0 12 -16 15 -80 15 l-80 0 0 35 0 35 105 0 c87 0 105 3 105 15 0 13 -20 15 -120 15 l-120 0 0 -115z"/>
<path d="M1800 2836 c0 -71 4 -116 10 -116 6 0 10 40 10 100 0 55 3 100 8 100 4 0 27 -34 52 -75 60 -100 76 -99 139 4 l46 75 3 -102 c2 -82 6 -102 17 -102 12 0 15 21 15 115 l0 115 -25 0 c-21 0 -34 -14 -73 -75 -26 -41 -50 -75 -54 -75 -3 0 -26 33 -50 73 -35 57 -50 73 -71 75 l-27 3 0 -115z"/>
<path d="M2220 2935 c0 -10 10 -15 30 -15 l30 0 0 -85 0 -85 -30 0 c-20 0 -30 -5 -30 -15 0 -12 15 -15 75 -15 60 0 75 3 75 15 0 10 -10 15 -30 15 l-30 0 0 85 0 85 30 0 c20 0 30 5 30 15 0 12 -15 15 -75 15 -60 0 -75 -3 -75 -15z"/>
<path d="M2480 2863 c0 -81 2 -89 27 -115 24 -25 34 -28 90 -28 50 0 70 5 93 22 30 21 30 23 30 115 0 55 -4 93 -10 93 -6 0 -10 -33 -10 -80 0 -102 -15 -120 -100 -120 -80 0 -90 14 -90 118 0 66 -3 82 -15 82 -12 0 -15 -16 -15 -87z"/>
<path d="M2860 2836 c0 -71 4 -116 10 -116 6 0 10 40 10 100 0 55 3 100 8 100 4 0 27 -34 52 -75 60 -100 76 -99 139 4 l46 75 3 -102 c2 -82 6 -102 17 -102 12 0 15 21 15 115 l0 115 -25 0 c-21 0 -34 -14 -73 -75 -26 -41 -50 -75 -54 -75 -3 0 -26 33 -50 73 -35 57 -50 73 -71 75 l-27 3 0 -115z"/>
<path d="M3490 2835 l0 -115 98 0 c88 1 99 3 125 25 24 22 27 31 27 90 0 59 -3 68 -27 90 -26 22 -37 24 -125 25 l-98 0 0 -115z m202 68 c13 -11 18 -30 18 -66 0 -76 -15 -87 -117 -87 l-83 0 0 85 0 85 82 0 c62 0 86 -4 100 -17z"/>
<path d="M3870 2835 l0 -115 120 0 c100 0 120 3 120 15 0 12 -18 15 -105 15 l-105 0 0 35 0 35 80 0 c64 0 80 3 80 15 0 12 -16 15 -80 15 l-80 0 0 35 0 35 105 0 c87 0 105 3 105 15 0 13 -20 15 -120 15 l-120 0 0 -115z"/>
<path d="M4230 2835 l0 -115 100 0 c82 0 100 3 100 15 0 12 -17 15 -90 15 l-90 0 0 100 c0 60 -4 100 -10 100 -6 0 -10 -45 -10 -115z"/>
<path d="M4530 2860 c0 -87 1 -92 28 -115 23 -20 38 -24 93 -25 59 0 68 3 92 28 25 26 27 34 27 115 0 71 -3 87 -15 87 -12 0 -15 -16 -15 -83 0 -104 -10 -117 -92 -117 -77 0 -88 14 -88 118 0 66 -3 82 -15 82 -12 0 -15 -17 -15 -90z"/>
<path d="M4930 2895 l54 -55 -59 -60 c-47 -47 -55 -60 -39 -60 11 0 42 23 69 50 l49 50 51 -50 c46 -45 75 -62 75 -43 0 4 -23 31 -52 60 l-52 53 54 55 c42 42 50 55 35 55 -11 0 -40 -20 -65 -45 l-46 -45 -44 45 c-24 25 -53 45 -64 45 -16 0 -9 -11 34 -55z"/>
<path d="M5240 2835 l0 -115 120 0 c100 0 120 3 120 15 0 12 -18 15 -105 15 l-105 0 0 35 0 35 80 0 c64 0 80 3 80 15 0 12 -16 15 -80 15 l-80 0 0 35 0 35 105 0 c87 0 105 3 105 15 0 13 -20 15 -120 15 l-120 0 0 -115z"/>
<path d="M1290 2365 c0 -96 3 -115 15 -115 12 0 15 18 15 101 0 55 4 98 9 95 5 -3 28 -37 51 -76 32 -54 48 -70 65 -70 17 0 33 16 65 70 23 39 46 73 51 76 5 3 9 -40 9 -95 0 -83 3 -101 15 -101 12 0 15 19 15 115 l0 115 -27 0 c-24 0 -35 -11 -76 -76 -26 -41 -51 -73 -56 -70 -5 3 -28 37 -51 76 -37 61 -46 70 -71 70 l-29 0 0 -115z"/>
<path d="M1758 2455 c-25 -22 -28 -31 -28 -90 0 -59 3 -68 28 -90 23 -21 37 -24 104 -25 68 0 80 3 107 26 29 24 31 31 31 89 0 58 -2 65 -31 89 -27 23 -39 26 -107 26 -67 -1 -81 -4 -104 -25z m190 -21 c18 -12 22 -25 22 -69 0 -70 -19 -85 -109 -85 -83 0 -101 15 -101 83 0 72 17 87 99 87 44 0 74 -5 89 -16z"/>
<path d="M2090 2465 c0 -12 13 -15 60 -15 l60 0 0 -100 c0 -82 3 -100 15 -100 12 0 15 18 15 100 l0 100 55 0 c42 0 55 3 55 15 0 13 -21 15 -130 15 -109 0 -130 -2 -130 -15z"/>
<path d="M2473 2454 c-31 -24 -33 -29 -33 -89 0 -61 2 -65 33 -89 29 -22 44 -26 106 -26 58 0 77 4 101 22 28 21 30 26 30 93 0 67 -2 72 -30 93 -24 18 -43 22 -102 22 -63 0 -77 -4 -105 -26z m195 -24 c16 -15 22 -32 22 -65 0 -65 -25 -85 -107 -85 -91 0 -113 17 -113 85 0 69 20 84 111 84 52 1 70 -3 87 -19z"/>
<path d="M2840 2365 c0 -96 3 -115 15 -115 11 0 15 11 15 40 l0 40 65 0 c63 0 65 -1 96 -40 18 -22 38 -40 46 -40 18 0 17 7 -13 46 l-27 35 27 27 c33 35 33 59 -1 94 -26 27 -30 28 -125 28 l-98 0 0 -115z m202 68 c22 -20 23 -31 1 -55 -13 -14 -31 -18 -95 -18 l-78 0 0 45 0 45 77 0 c57 0 81 -4 95 -17z"/>
<path d="M3222 2457 c-28 -30 -28 -58 1 -85 18 -17 37 -22 101 -24 61 -2 81 -7 89 -20 8 -12 7 -21 -2 -32 -11 -13 -34 -16 -107 -16 -77 0 -94 -3 -94 -15 0 -12 18 -15 98 -15 90 0 100 2 120 23 28 30 28 58 -1 85 -18 17 -37 22 -101 24 -61 2 -81 7 -89 20 -8 12 -7 21 2 32 10 12 33 16 102 16 72 0 89 3 89 15 0 12 -17 15 -93 15 -85 0 -96 -2 -115 -23z"/>
<path d="M3560 2365 c0 -96 3 -115 15 -115 10 0 15 11 15 35 l0 35 79 0 c99 0 131 20 131 80 0 30 -6 43 -26 59 -23 18 -41 21 -120 21 l-94 0 0 -115z m191 75 c12 -7 19 -21 19 -40 0 -39 -23 -50 -109 -50 l-71 0 0 50 0 50 71 0 c39 0 79 -5 90 -10z"/>
<path d="M3941 2454 c-29 -24 -31 -31 -31 -89 0 -58 2 -65 31 -89 27 -23 39 -26 107 -26 67 1 81 4 105 25 24 22 27 31 27 90 0 59 -3 68 -27 90 -24 21 -38 24 -105 25 -68 0 -80 -3 -107 -26z m191 -21 c13 -11 18 -30 18 -66 0 -72 -17 -87 -99 -87 -92 0 -111 15 -111 85 0 44 4 57 22 69 32 22 145 22 170 -1z"/>
<path d="M4310 2365 c0 -96 3 -115 15 -115 11 0 15 11 15 40 l0 40 62 0 c59 0 62 -1 95 -40 19 -22 41 -40 49 -40 21 0 17 11 -18 47 l-31 32 26 21 c37 29 37 80 1 109 -23 18 -41 21 -120 21 l-94 0 0 -115z m191 75 c11 -6 19 -21 19 -35 0 -34 -27 -45 -109 -45 l-71 0 0 45 0 45 71 0 c39 0 79 -5 90 -10z"/>
<path d="M4650 2465 c0 -12 13 -15 55 -15 l55 0 0 -100 c0 -82 3 -100 15 -100 12 0 15 18 15 100 l0 100 60 0 c47 0 60 3 60 15 0 13 -21 15 -130 15 -109 0 -130 -2 -130 -15z"/>
</g>
</svg>
